REM DIRINDEX 1\8,1\2\11,1\3\12,1\3\14,1\5\15,1\5\16,1\6\17,1\6\18,1\4\19,1\4\20,1\4\21,1\4\22,1\7\23,1\7\24,1\7\25,1\2\9\26,1\2\9\27,1\2\10\28,1\2\10\29,1\2\10\30,1\2\10\31,1\2\10\32,1\3\13\33,1\3\13\34,1\3\13\35
REM DIRNAME folder01,folder02,folder03,folder04,folder05,folder06,folder07,folder08,folder09,folder10,folder11,folder12,folder13,folder14,folder15,folder16,folder17,folder18,folder19,folder20,folder21,folder22,folder23,folder24,folder25,folder26,folder27,folder28,folder29,folder30,folder31,folder32,folder33,folder34,folder35
TITLE ""
FILE "60 060_UNIT6_SET1.mp3" MP3
  TRACK 01 AUDIO
    TITLE "11:cjc123_6109"
    INDEX 01 00:00:00
  TRACK 02 AUDIO
    TITLE "0:"
    INDEX 01 00:02:59
  TRACK 03 AUDIO
    TITLE "28:cjc123_6110"
    INDEX 01 00:03:39
  TRACK 04 AUDIO
    TITLE "0:"
    INDEX 01 00:04:46
  TRACK 05 AUDIO
    TITLE "29:cjc123_6111"
    INDEX 01 00:04:60
  TRACK 06 AUDIO
    TITLE "0:"
    INDEX 01 00:05:67
  TRACK 07 AUDIO
    TITLE "30:cjc123_6112"
    INDEX 01 00:05:73
  TRACK 08 AUDIO
    TITLE "0:"
    INDEX 01 00:07:07
  TRACK 09 AUDIO
    TITLE "31:cjc123_6113"
    INDEX 01 00:08:09
  TRACK 10 AUDIO
    TITLE "0:"
    INDEX 01 00:12:28
  TRACK 11 AUDIO
    TITLE "32:cjc123_6114"
    INDEX 01 00:12:60
  TRACK 12 AUDIO
    TITLE "0:"
    INDEX 01 00:16:71
  TRACK 13 AUDIO
    TITLE "28:cjc123_6115"
    INDEX 01 00:17:20
  TRACK 14 AUDIO
    TITLE "0:"
    INDEX 01 00:18:37
  TRACK 15 AUDIO
    TITLE "29:cjc123_6116"
    INDEX 01 00:18:58
  TRACK 16 AUDIO
    TITLE "0:"
    INDEX 01 00:19:32
  TRACK 17 AUDIO
    TITLE "30:cjc123_6117"
    INDEX 01 00:19:50
  TRACK 18 AUDIO
    TITLE "0:"
    INDEX 01 00:20:49
  TRACK 19 AUDIO
    TITLE "31:cjc123_6118"
    INDEX 01 00:21:27
  TRACK 20 AUDIO
    TITLE "0:"
    INDEX 01 00:25:56
  TRACK 21 AUDIO
    TITLE "32:cjc123_6119"
    INDEX 01 00:26:26
  TRACK 22 AUDIO
    TITLE "0:"
    INDEX 01 00:30:12
  TRACK 23 AUDIO
    TITLE "28:cjc123_6120"
    INDEX 01 00:30:59
  TRACK 24 AUDIO
    TITLE "0:"
    INDEX 01 00:32:01
  TRACK 25 AUDIO
    TITLE "29:cjc123_6121"
    INDEX 01 00:32:11
  TRACK 26 AUDIO
    TITLE "0:"
    INDEX 01 00:33:17
  TRACK 27 AUDIO
    TITLE "30:cjc123_6122"
    INDEX 01 00:33:28
  TRACK 28 AUDIO
    TITLE "0:"
    INDEX 01 00:34:42
  TRACK 29 AUDIO
    TITLE "31:cjc123_6123"
    INDEX 01 00:35:10
  TRACK 30 AUDIO
    TITLE "0:"
    INDEX 01 00:38:47
  TRACK 31 AUDIO
    TITLE "32:cjc123_6124"
    INDEX 01 00:39:11
  TRACK 32 AUDIO
    TITLE "0:"
    INDEX 01 00:42:61
  TRACK 33 AUDIO
    TITLE "28:cjc123_6125"
    INDEX 01 00:43:35
  TRACK 34 AUDIO
    TITLE "0:"
    INDEX 01 00:44:56
  TRACK 35 AUDIO
    TITLE "29:cjc123_6126"
    INDEX 01 00:45:02
  TRACK 36 AUDIO
    TITLE "0:"
    INDEX 01 00:45:65
  TRACK 37 AUDIO
    TITLE "30:cjc123_6127"
    INDEX 01 00:45:71
  TRACK 38 AUDIO
    TITLE "0:"
    INDEX 01 00:47:07
  TRACK 39 AUDIO
    TITLE "31:cjc123_6128"
    INDEX 01 00:48:04
  TRACK 40 AUDIO
    TITLE "0:"
    INDEX 01 00:52:20
  TRACK 41 AUDIO
    TITLE "32:cjc123_6129"
    INDEX 01 00:52:53
  TRACK 42 AUDIO
    TITLE "0:"
    INDEX 01 00:57:07
  TRACK 43 AUDIO
    TITLE "28:cjc123_6130"
    INDEX 01 00:57:27
  TRACK 44 AUDIO
    TITLE "0:"
    INDEX 01 00:58:38
  TRACK 45 AUDIO
    TITLE "29:cjc123_6131"
    INDEX 01 00:58:54
  TRACK 46 AUDIO
    TITLE "0:"
    INDEX 01 00:59:55
  TRACK 47 AUDIO
    TITLE "30:cjc123_6132"
    INDEX 01 00:59:65
  TRACK 48 AUDIO
    TITLE "0:"
    INDEX 01 01:00:68
  TRACK 49 AUDIO
    TITLE "31:cjc123_6133"
    INDEX 01 01:01:54
  TRACK 50 AUDIO
    TITLE "0:"
    INDEX 01 01:06:28
  TRACK 51 AUDIO
    TITLE "32:cjc123_6134"
    INDEX 01 01:06:32
  TRACK 52 AUDIO
    TITLE "0:"
    INDEX 01 01:11:47
  TRACK 53 AUDIO
    TITLE "28:cjc123_6135"
    INDEX 01 01:12:07
  TRACK 54 AUDIO
    TITLE "0:"
    INDEX 01 01:13:14
  TRACK 55 AUDIO
    TITLE "29:cjc123_6136"
    INDEX 01 01:13:40
  TRACK 56 AUDIO
    TITLE "0:"
    INDEX 01 01:14:68
  TRACK 57 AUDIO
    TITLE "30:cjc123_6137"
    INDEX 01 01:15:05
  TRACK 58 AUDIO
    TITLE "0:"
    INDEX 01 01:16:07
  TRACK 59 AUDIO
    TITLE "31:cjc123_6138"
    INDEX 01 01:16:61
  TRACK 60 AUDIO
    TITLE "0:"
    INDEX 01 01:21:25
  TRACK 61 AUDIO
    TITLE "32:cjc123_6139"
    INDEX 01 01:21:61
  TRACK 62 AUDIO
    TITLE "0:"
    INDEX 01 01:25:74
  TRACK 63 AUDIO
    TITLE "28:cjc123_6140"
    INDEX 01 01:26:42
  TRACK 64 AUDIO
    TITLE "0:"
    INDEX 01 01:27:59
  TRACK 65 AUDIO
    TITLE "29:cjc123_6141"
    INDEX 01 01:27:69
  TRACK 66 AUDIO
    TITLE "0:"
    INDEX 01 01:28:65
  TRACK 67 AUDIO
    TITLE "30:cjc123_6142"
    INDEX 01 01:28:74
  TRACK 68 AUDIO
    TITLE "0:"
    INDEX 01 01:30:05
  TRACK 69 AUDIO
    TITLE "31:cjc123_6143"
    INDEX 01 01:30:56
  TRACK 70 AUDIO
    TITLE "0:"
    INDEX 01 01:36:00
  TRACK 71 AUDIO
    TITLE "32:cjc123_6144"
    INDEX 01 01:36:39
  TRACK 72 AUDIO
    TITLE "0:"
    INDEX 01 01:41:67
  TRACK 73 AUDIO
    TITLE "28:cjc123_6145"
    INDEX 01 01:42:35
  TRACK 74 AUDIO
    TITLE "0:"
    INDEX 01 01:43:35
  TRACK 75 AUDIO
    TITLE "29:cjc123_6146"
    INDEX 01 01:43:54
  TRACK 76 AUDIO
    TITLE "0:"
    INDEX 01 01:44:50
  TRACK 77 AUDIO
    TITLE "30:cjc123_6147"
    INDEX 01 01:44:60
  TRACK 78 AUDIO
    TITLE "0:"
    INDEX 01 01:45:65
  TRACK 79 AUDIO
    TITLE "31:cjc123_6148"
    INDEX 01 01:46:35
  TRACK 80 AUDIO
    TITLE "0:"
    INDEX 01 01:51:30
  TRACK 81 AUDIO
    TITLE "32:cjc123_6149"
    INDEX 01 01:51:62
  TRACK 82 AUDIO
    TITLE "0:"
    INDEX 01 01:56:67
  TRACK 83 AUDIO
    TITLE "28:cjc123_6150"
    INDEX 01 01:57:37
  TRACK 84 AUDIO
    TITLE "0:"
    INDEX 01 01:58:62
  TRACK 85 AUDIO
    TITLE "29:cjc123_6151"
    INDEX 01 01:59:08
  TRACK 86 AUDIO
    TITLE "0:"
    INDEX 01 02:00:14
  TRACK 87 AUDIO
    TITLE "30:cjc123_6152"
    INDEX 01 02:00:20
  TRACK 88 AUDIO
    TITLE "0:"
    INDEX 01 02:01:43
  TRACK 89 AUDIO
    TITLE "31:cjc123_6153"
    INDEX 01 02:02:20
  TRACK 90 AUDIO
    TITLE "0:"
    INDEX 01 02:07:08
  TRACK 91 AUDIO
    TITLE "32:cjc123_6154"
    INDEX 01 02:07:33
  TRACK 92 AUDIO
    TITLE "0:"
    INDEX 01 02:12:25
  TRACK 93 AUDIO
    TITLE "28:cjc123_6155"
    INDEX 01 02:12:68
  TRACK 94 AUDIO
    TITLE "0:"
    INDEX 01 02:14:02
  TRACK 95 AUDIO
    TITLE "29:cjc123_6156"
    INDEX 01 02:14:18
  TRACK 96 AUDIO
    TITLE "0:"
    INDEX 01 02:15:19
  TRACK 97 AUDIO
    TITLE "30:cjc123_6157"
    INDEX 01 02:15:25
  TRACK 98 AUDIO
    TITLE "0:"
    INDEX 01 02:16:30
  TRACK 99 AUDIO
    TITLE "31:cjc123_6158"
    INDEX 01 02:17:18
  TRACK 100 AUDIO
    TITLE "0:"
    INDEX 01 02:21:20
  TRACK 101 AUDIO
    TITLE "32:cjc123_6159"
    INDEX 01 02:21:59
  TRACK 102 AUDIO
    TITLE "0:"
    INDEX 01 02:25:37
  TRACK 103 AUDIO
    TITLE "28:cjc123_6160"
    INDEX 01 02:26:11
  TRACK 104 AUDIO
    TITLE "0:"
    INDEX 01 02:27:22
  TRACK 105 AUDIO
    TITLE "29:cjc123_6161"
    INDEX 01 02:27:38
  TRACK 106 AUDIO
    TITLE "0:"
    INDEX 01 02:28:47
  TRACK 107 AUDIO
    TITLE "30:cjc123_6162"
    INDEX 01 02:28:57
  TRACK 108 AUDIO
    TITLE "0:"
    INDEX 01 02:29:66
  TRACK 109 AUDIO
    TITLE "31:cjc123_6163"
    INDEX 01 02:30:44
  TRACK 110 AUDIO
    TITLE "0:"
    INDEX 01 02:36:02
  TRACK 111 AUDIO
    TITLE "32:cjc123_6164"
    INDEX 01 02:36:39
  TRACK 112 AUDIO
    TITLE "0:"
    INDEX 01 02:41:58
  TRACK 113 AUDIO
    TITLE "28:cjc123_6165"
    INDEX 01 02:42:30
  TRACK 114 AUDIO
    TITLE "0:"
    INDEX 01 02:43:35
  TRACK 115 AUDIO
    TITLE "29:cjc123_6166"
    INDEX 01 02:43:51
  TRACK 116 AUDIO
    TITLE "0:"
    INDEX 01 02:44:58
  TRACK 117 AUDIO
    TITLE "30:cjc123_6167"
    INDEX 01 02:44:74
  TRACK 118 AUDIO
    TITLE "0:"
    INDEX 01 02:46:14
  TRACK 119 AUDIO
    TITLE "31:cjc123_6168"
    INDEX 01 02:46:63
  TRACK 120 AUDIO
    TITLE "0:"
    INDEX 01 02:52:44
  TRACK 121 AUDIO
    TITLE "32:cjc123_6169"
    INDEX 01 02:52:73
  TRACK 122 AUDIO
    TITLE "0:"
    INDEX 01 02:58:13
  TRACK 123 AUDIO
    TITLE "28:cjc123_6170"
    INDEX 01 02:58:62
  TRACK 124 AUDIO
    TITLE "0:"
    INDEX 01 02:59:44
  TRACK 125 AUDIO
    TITLE "29:cjc123_6171"
    INDEX 01 02:59:63
  TRACK 126 AUDIO
    TITLE "0:"
    INDEX 01 03:00:53
  TRACK 127 AUDIO
    TITLE "30:cjc123_6172"
    INDEX 01 03:00:65
  TRACK 128 AUDIO
    TITLE "0:"
    INDEX 01 03:01:49
  TRACK 129 AUDIO
    TITLE "31:cjc123_6173"
    INDEX 01 03:02:32
  TRACK 130 AUDIO
    TITLE "0:"
    INDEX 01 03:07:16
  TRACK 131 AUDIO
    TITLE "32:cjc123_6174"
    INDEX 01 03:07:65
  TRACK 132 AUDIO
    TITLE "0:"
    INDEX 01 03:11:59
  TRACK 133 AUDIO
    TITLE "28:cjc123_6175"
    INDEX 01 03:12:29
  TRACK 134 AUDIO
    TITLE "0:"
    INDEX 01 03:13:38
  TRACK 135 AUDIO
    TITLE "29:cjc123_6176"
    INDEX 01 03:13:58
  TRACK 136 AUDIO
    TITLE "0:"
    INDEX 01 03:14:71
  TRACK 137 AUDIO
    TITLE "30:cjc123_6177"
    INDEX 01 03:15:06
  TRACK 138 AUDIO
    TITLE "0:"
    INDEX 01 03:16:05
  TRACK 139 AUDIO
    TITLE "31:cjc123_6178"
    INDEX 01 03:16:64
  TRACK 140 AUDIO
    TITLE "0:"
    INDEX 01 03:23:05
  TRACK 141 AUDIO
    TITLE "32:cjc123_6179"
    INDEX 01 03:23:62
  TRACK 142 AUDIO
    TITLE "0:"
    INDEX 01 03:30:29
  TRACK 143 AUDIO
    TITLE "28:cjc123_6180"
    INDEX 01 03:31:05
  TRACK 144 AUDIO
    TITLE "0:"
    INDEX 01 03:32:02
  TRACK 145 AUDIO
    TITLE "29:cjc123_6181"
    INDEX 01 03:32:20
  TRACK 146 AUDIO
    TITLE "0:"
    INDEX 01 03:33:41
  TRACK 147 AUDIO
    TITLE "30:cjc123_6182"
    INDEX 01 03:33:58
  TRACK 148 AUDIO
    TITLE "0:"
    INDEX 01 03:34:56
  TRACK 149 AUDIO
    TITLE "31:cjc123_6183"
    INDEX 01 03:35:38
  TRACK 150 AUDIO
    TITLE "0:"
    INDEX 01 03:40:19
  TRACK 151 AUDIO
    TITLE "32:cjc123_6184"
    INDEX 01 03:40:53
  TRACK 152 AUDIO
    TITLE "0:"
    INDEX 01 03:45:22
